<svg width="512" height="512" viewBox="0 0 512 512" fill="none" xmlns="http://www.w3.org/2000/svg">
<path d="M36 271.054V241.542H124.009V271.054H36ZM65.3364 94.5863V65.2038H94.5428V94.5863H65.3364ZM65.3364 447.393V418.01H94.5428V447.479L65.3364 447.393ZM94.6729 123.925V94.5863H124.009V123.925H94.6729ZM94.6729 418.01V388.671H124.009V418.01H94.6729ZM124.009 153.264V123.925H153.562V153.264H124.009ZM124.009 388.671V359.115H153.562V388.671H124.009ZM212.278 359.115V329.776H182.942V300.437H153.562V212.16H182.942V182.82H212.278V153.264H300.504V182.82H329.84V212.16H359.393V300.437H329.84V329.776H300.504V359.115H212.278ZM241.831 123.925V21H271.168V123.925H241.831ZM241.831 491.38V388.671H271.168V491.38H241.831ZM359.393 153.351V124.012H388.773V153.351H359.393ZM359.393 388.758V359.202H388.773V388.758H359.393ZM388.773 124.012V94.6729H418.11V124.012H388.773ZM388.773 271.358V241.845H476.999V271.358H388.773ZM388.773 418.314V388.974H418.11V418.314H388.773ZM418.11 94.8897V65.507H447.662V94.8897H418.11ZM418.11 447.696V418.01H447.662V447.479L418.11 447.696Z" fill="black"/>
</svg>
