<?xml version="1.0" encoding="utf-8"?>
<!-- Generator: Adobe Illustrator 26.3.1, SVG Export Plug-In . SVG Version: 6.00 Build 0)  -->
<svg version="1.1" id="Capa_1" xmlns="http://www.w3.org/2000/svg" xmlns:xlink="http://www.w3.org/1999/xlink" x="0px" y="0px"
	 viewBox="0 0 512 512" style="enable-background:new 0 0 512 512;" xml:space="preserve">
<g>
	<path d="M337,211.9c-1-1.1-2.5-1.5-3.9-1.1c-0.2,0.1-0.2,0.1-0.4,0.1c-0.1,0-0.7,0.2-1.3,0.5c-7.3,4.5-15.3,7.8-23.7,10.7
		c-8.1,2.9-16,4.8-24.2,4.3c-2.9-0.2-4.8-0.4-6-1.1c-1.2-0.8-2.6-1.3-4.1-1.5c-1.6-0.2-3,0-4.4,0.6c-4.3,1.7-8.4,2.6-12.8,2.3
		c-4.3-0.3-7.9-0.5-11.1-1.6c3.6-2.1,6.9-4,10.5-5.3c11.8-4.2,23.7-7.5,36-8.6c7.1-0.6,13.8-1,21-1.5c1.9-0.1,4-0.6,5.4-0.9
		c1.2-0.2,2.2-1,2.7-2.1c0.5-1.1,0.4-2.4-0.2-3.4c-0.6-1-1.8-2.3-3.7-2.5c-2.9-0.3-6.8-1-10.3-1c-8.8,0-18.2-0.3-27.4,0.8
		c-8.7,1-17.4,3.1-25.6,5.5c-7,2-13.7,4.9-20,7.8c-8,3.7-16.3,7.5-23.9,12.4c-5.9,3.7-10.8,8.9-15.4,13.4c-4.4,4.4-6.9,9.9-8.2,15.5
		c-0.5,2,0,4.1,0.4,5.5c0.2,0.8,0.5,1.5,0.9,2.1c0.2,0.3,0.4,0.7,0.7,1c0.2,0.2,0.8,1,1.8,1.4c1.9,0.8,4-0.1,4.8-2
		c0.4-1,0.9-2.3,1.2-3c0.4-0.9,0.7-1.6,1-2.1c4.8-7.5,10.8-13.5,18.8-17.1c8.1-3.6,16.4-4.3,25-2.1c1.6,0.4,2.1,1.1,2.2,1.3
		c0,0.1,0,0.1,0,0.1c0,0-0.1,0.2-0.4,0.5c-4.7,4.4-9.9,7.9-15.4,12.2c-0.8,0.6-1.7,1.6-2,1.9c-1.4,1.3-1.5,3.6-0.3,5.1
		c0.1,0.1,0.2,0.2,0.2,0.3c0.1,0.1,0.1,0.2,0.2,0.3c1,1.2,2.8,1.7,4.2,1c0.8-0.4,1.8-0.8,2.8-1.2c6-2.6,12.5-5.2,18.6-8.3
		c8.6-4.4,15.6-8.7,24.2-9c5.1-0.2,9.5-0.3,13.5,1.1c-3.4,4-6.4,7.6-10.1,10.1c-4,2.8-8.8,4.2-14.4,6.6c-6.5,2.7-12.8,5.2-19.5,7.9
		c-1.2,0.5-1.9,1.4-2.2,1.7c-0.4,0.5-0.5,0.6-0.8,1c-1,1.1-1.3,2.6-0.7,4c0.6,1.3,1.9,2.2,3.4,2.2c0.5,0,0.7,0,1.1,0
		c0.3,0,0.9,0,1.4-0.1c1.3-0.2,2.7-0.5,4.1-0.8c1.3-0.3,2.5-0.6,3.7-0.8c-7.1,4.7-14.3,9.3-21.7,13.3c-6.9,3.8-14.1,7-21.4,10.2
		c-7.4,3.2-14.9,5.9-22.5,8.9c-1.9,0.8-3.9,1.5-5.9,2.3c-1.8,0.7-2.8,2.6-2.2,4.5c0,0.1,0.1,0.2,0.1,0.3c0,0.1,0,0.1,0.1,0.2
		c0.5,1.7,2.1,2.8,3.8,2.6c0,0,0,0,0,0c0,0,0.2,0,0.3,0c0.2,0,0.7,0,1.2-0.2c3.3-0.9,6.7-1.7,10.1-2.6c7.2-1.9,14.8-3.7,22.1-6
		c6.6-2.1,13.4-4.3,19.9-7.5c8.3-4.1,16.3-8.9,24-13.4c9.1-5.3,17.5-11.7,25-19.2c7.3-7.3,14.5-14.8,21.6-22.2
		c9.1-9.6,18.2-19.3,27.3-29c0.6-0.7,0.9-1.4,1-1.7c0.2-0.4,0.1-0.4,0.2-0.6C338.2,214.6,338,213,337,211.9L337,211.9z"/>
	<g>
		<path d="M420.4,168.8C462,193.2,484,224.5,484,256h15.4c0-78.5-109-142.1-243.4-142.1v15.4C321,129.3,379.1,144.7,420.4,168.8z"/>
		<path d="M91.6,168.8c41.3-24.1,99.4-39.5,164.4-39.5v-15.4c-134.4,0-243.4,63.6-243.4,142.1H28C28,224.5,50,193.2,91.6,168.8z"/>
		<path d="M484,256c0,31.5-22,62.8-63.6,87.2c-41.3,24.1-99.4,39.5-164.4,39.5v15.4c134.4,0,243.4-63.6,243.4-142.1H484z"/>
		<path d="M91.6,343.2C50,318.8,28,287.5,28,256H12.6c0,78.5,109,142.1,243.4,142.1v-15.4C191,382.7,132.9,367.3,91.6,343.2z"/>
	</g>
</g>
</svg>
